<?xml version="1.0" encoding="utf-8"?>
<!-- Generator: Adobe Illustrator 16.0.4, SVG Export Plug-In . SVG Version: 6.00 Build 0)  -->
<!DOCTYPE svg PUBLIC "-//W3C//DTD SVG 1.1//EN" "http://www.w3.org/Graphics/SVG/1.1/DTD/svg11.dtd">
<svg version="1.1" id="Layer_1" xmlns="http://www.w3.org/2000/svg" xmlns:xlink="http://www.w3.org/1999/xlink" x="0px" y="0px"
   width="186px" height="52.104px" viewBox="3.437 -0.612 186 52.104" enable-background="new 3.437 -0.612 186 52.104"
   xml:space="preserve">
<g>
  <path fill="#010202" d="M64.988,28.173h2.038c1.512,0,2.296,0.637,2.296,1.822c0,1.381-1.087,1.866-2.195,1.866h-2.139V28.173
    L64.988,28.173z M60.956,25.228v16.172h4.032v-6.587h1.164c2.176,0,2.812,3.095,4.542,6.587h4.441
    c-2.284-4.765-2.775-6.756-4.441-7.562c1.855-0.862,2.774-2.208,2.774-3.957c0-2.438-1.967-4.652-5.288-4.652H60.956z"/>
  <path fill="#010202" d="M79.712,34.661c0.13-1.504,1.013-2.378,2.363-2.378c1.331,0,2.229,0.899,2.37,2.378H79.712z M87.287,38
    c-1.609,1.145-2.681,1.554-4.049,1.554c-2.158,0-3.488-1.14-3.603-3.092h7.841c0.17-3.975-2.456-6.209-5.645-6.209
    c-3.358,0-5.758,2.364-5.758,5.685c0,3.419,2.494,5.664,6.339,5.664c0.845,0,2.906,0,4.874-1.445V38L87.287,38z"/>
  <path fill="#010202" d="M97.268,38.396c-0.713,0.654-1.302,0.897-2.037,0.897c-1.608,0-2.637-1.313-2.637-3.301
    c0-2.212,1.028-3.459,2.759-3.459c0.613,0,1.414,0.291,1.915,0.648V38.396L97.268,38.396z M100.703,25.228h-3.436v5.688
    c-0.921-0.434-1.847-0.663-2.844-0.663c-3.124,0-5.312,2.325-5.312,5.647c0,3.262,2.191,5.701,5.123,5.701
    c1.157,0,2.057-0.316,3.032-1.088v0.886h3.436V25.228L100.703,25.228z"/>
  <path fill="#010202" d="M110.852,38.396c-0.706,0.654-1.295,0.897-2.033,0.897c-1.607,0-2.633-1.313-2.633-3.301
    c0-2.212,1.021-3.459,2.752-3.459c0.62,0,1.424,0.291,1.916,0.648v5.214H110.852z M114.295,25.228h-3.443v5.688
    c-0.919-0.434-1.839-0.663-2.837-0.663c-3.129,0-5.308,2.325-5.308,5.647c0,3.262,2.179,5.701,5.117,5.701
    c1.165,0,2.062-0.316,3.027-1.088v0.886h3.445V25.228H114.295z"/>
  <path fill="#010202" d="M128.11,28.173h2.111c1.469,0,2.065,0.882,2.065,1.725c0,0.826-0.597,1.731-2.065,1.731h-2.111V28.173z
     M124.084,25.228v16.172h7.865c4.721,0,5.715-2.893,5.715-4.765c0-1.877-1.136-3.566-3.433-4.146
    c1.348-0.649,2.199-1.859,2.199-3.23c0-1.799-1.537-4.031-5.36-4.031H124.084L124.084,25.228z M128.11,34.606h2.825
    c1.424,0,2.459,0.637,2.459,1.818c0,1.406-0.779,1.987-3.007,1.987h-2.281v-3.806H128.11z"/>
  <path fill="#010202" d="M146.105,38.73c-0.573,0.526-1.261,0.823-1.899,0.823c-0.614,0-1.114-0.505-1.114-1.157
    c0-1.088,0.973-1.577,3.014-2.308V38.73L146.105,38.73z M151.418,38.697c-0.811,0.56-1.067,0.595-1.312,0.595
    c-0.357,0-0.565-0.204-0.565-0.748v-4.986c0-2.386-1.874-3.305-4.622-3.305c-1.729,0-3.316,0.432-4.743,1.312v2.814
    c1.094-1.14,2.658-1.851,4.03-1.851c1.49,0,1.971,0.819,1.899,1.851c-4.572,1.424-6.499,1.916-6.499,4.54
    c0,1.387,1.306,2.683,3.055,2.683c1.19,0,2.283-0.336,3.609-1.239c0.233,0.884,0.777,1.239,1.923,1.239
    c0.917,0,2.271-0.442,3.225-1.014V38.697L151.418,38.697z"/>
  <path fill="#010202" d="M156.369,33.575h0.045c1.02-2.252,2.154-3.322,3.482-3.322c0.69,0,1.28,0.249,2.278,0.978l-0.946,3.04
    c-0.901-0.563-1.501-0.789-2.039-0.789c-1.26,0-2.064,1.164-2.82,3.173v4.747h-3.438V30.465h3.438V33.575z"/>
  <path fill="#010202" d="M166.893,32.036c1.085-1.259,2.153-1.783,3.551-1.783c1.712,0,3.989,0.958,3.989,4.187v6.958h-3.437v-6.663
    c0-1.552-0.737-2.2-1.711-2.2c-0.856,0-1.497,0.458-2.395,1.791v7.072h-3.435V30.461h3.435v1.573h0.002V32.036z"/>
  <path fill="#010202" d="M183.124,38.73c-0.566,0.526-1.255,0.823-1.892,0.823c-0.617,0-1.112-0.505-1.112-1.157
    c0-1.088,0.969-1.577,3.004-2.308V38.73L183.124,38.73z M188.437,38.697c-0.81,0.56-1.063,0.595-1.307,0.595
    c-0.349,0-0.567-0.204-0.567-0.748v-4.986c0-2.386-1.869-3.305-4.617-3.305c-1.736,0-3.323,0.432-4.746,1.312v2.814
    c1.098-1.14,2.656-1.851,4.033-1.851c1.493,0,1.962,0.819,1.892,1.851c-4.571,1.424-6.491,1.916-6.491,4.54
    c0,1.387,1.307,2.683,3.061,2.683c1.183,0,2.276-0.336,3.601-1.239c0.235,0.884,0.781,1.239,1.916,1.239
    c0.926,0,2.277-0.442,3.227-1.014V38.697z"/>
  <g>
    <g>
      <path fill="#E52420" d="M48.983,13.949c2.221-2.299,3.227-3.369,3.065-3.977c-0.121-0.484-0.58-0.908-1.272-1.239
        c-0.766-0.353-1.831-0.556-2.383-0.299c-0.183,0.11-0.489,0.426-1.251,1.167l-0.7,0.694h-0.008
        c-0.38-0.468-0.788-0.903-1.204-1.336c-2.966-2.95-6.715-5.032-10.843-5.955c-1.55-1.883-3.688-2.88-5.862-2.692
        c-1.825,0.16-3.498,1.119-4.702,2.728c-4.321,1.015-8.33,3.18-11.589,6.277l-0.002-0.005c-0.674-0.233-2.186-0.067-3.139,0.358
        c-0.555,0.28-0.887,0.569-0.983,0.98c-0.075,0.265,0.014,0.744,1.084,2.156H9.192c-3.309,4.538-4.996,10.076-4.728,15.564
        c0.274,5.662,2.591,10.927,6.521,14.853c1.379,1.402,2.923,2.566,4.618,3.559c2.43,1.372,5.166,2.423,8.092,3.046
        c6.186,1.261,12.303,0.346,17.437-2.226l0.015-0.004c0.657-0.28,0.935-1.047,0.668-1.781l-0.08-0.216
        c-1.081-2.945-4.387-11.959-1.657-19.803c1.128-3.264,3.996-6.653,6.453-9.305l0,0c2.145,3.923,3.084,8.456,2.601,12.836
        c-0.457,4.136-2.087,7.876-4.729,10.976l0,0c-0.083,0.068-0.142,0.196-0.142,0.294c0,0.077,0.008,0.122,0.034,0.159l0.211,0.594
        c0.069,0.194,0.235,0.304,0.441,0.304c0.127,0,0.258-0.045,0.349-0.151h0.004C52.258,33.841,53.785,22.712,48.983,13.949z
         M19.372,30.873c-0.72,2.985-1.701,7.022-1.484,13.275l-0.004-0.004c-1.599-0.944-3.093-2.107-4.404-3.421
        C9.889,37.13,7.601,32.425,7.068,27.45c-0.498-4.752,0.607-9.516,3.134-13.388l0,0l0,0l0,0c0.8,0.941,1.774,2.039,2.782,3.179
        c2.485,2.826,5.294,6.034,6.617,8.249C20.357,26.772,19.986,28.326,19.372,30.873z M43.871,12.682
        c-5.253,4.572-10.053,6.958-14.279,6.984c-3.25,0.013-6.622-1.196-9.99-3.576c-2.788-1.973-4.901-4.266-6.157-5.602l-0.12-0.149
        c2.585-2.388,5.759-4.096,9.237-4.875V5.462v0.002l0,0c-0.46,1.296-0.624,2.72-0.501,4.161c0.237,2.568,1.396,4.915,3.193,6.438
        c1.396,1.167,3.1,1.736,4.793,1.613c1.692-0.154,3.262-1.021,4.435-2.435c1.513-1.801,2.248-4.311,2.031-6.877
        c-0.041-0.49-0.109-0.942-0.227-1.418h0.007c2.382,1.099,4.552,2.641,6.44,4.514C43.128,11.835,43.504,12.268,43.871,12.682
        L43.871,12.682"/>
    </g>
  </g>
</g>
</svg>
